<svg data-v-cc63ef27="" xmlns="http://www.w3.org/2000/svg" width="160" height="80" fill="none" viewBox="0 0 104 51" class="logo"><g fill="#0079C1" clip-path="url(#a)"><path d="M28.465 9.172c-1.077-4.689-3.77-8.514-4.143-9.13-.58.863-2.735 4.235-3.854 7.978-1.201 4.154-1.367 7.856-.953 11.516s1.948 7.403 1.948 7.403c.829 1.975 2.072 4.072 2.859 5.1 1.16-1.521 3.895-6.045 4.723-11.968.498-3.332.498-6.21-.58-10.9M24.28 30.847c-.538-.987-1.367-2.88-1.45-5.8 0-2.837 1.119-5.223 1.45-5.757.29.493 1.285 2.59 1.41 5.51.123 2.839-.83 5.06-1.41 6.047m3.854-13.696c-.042 1.81-.249 3.701-.539 4.812.083-1.933-.124-4.689-.58-6.828-.456-2.138-1.74-5.716-2.735-7.403-.953 1.563-2.113 4.689-2.693 7.362-.621 2.674-.621 5.964-.621 6.91-.166-.823-.58-3.743-.456-6.704.083-2.427.663-4.936.994-6.087 1.202-3.825 2.57-6.293 2.818-6.704.248.37 1.947 3.414 2.859 6.58.828 3.209.994 6.252.953 8.062"></path><path d="M17.9 33.109v5.47-.041a4.95 4.95 0 0 1 7.002 0 4.865 4.865 0 0 1 0 6.95l-.042.042-.04.041a10 10 0 0 1-6.962 2.838 9.89 9.89 0 0 1-7.002-2.88 9.746 9.746 0 0 1-1.202-12.42c.332-.535.746-.987 1.202-1.48a9.89 9.89 0 0 1 7.002-2.88V15.63C8.163 15.629.29 23.444.29 33.109s7.914 17.52 17.651 17.52c5.096 0 9.654-2.138 12.886-5.552V33.11zM32.857 15.629h6.754v2.18h-3.19v15.3h-3.564zM43.423 26.528l.622-8.76h.207l.621 8.76zm-3.936 6.58h3.439l.331-4.647h1.658l.331 4.648h3.44l-1.824-17.48H41.31zM53.367 30.27c0 .453.332.577.539.577.331 0 .539-.288.539-.576v-4.072c0-.535-.083-1.151-1.41-1.151h-1.45v-1.933h1.492c.995 0 1.368-.206 1.368-1.317v-3.496c0-.287-.208-.575-.539-.575-.207 0-.539.123-.539.575v2.838h-3.522v-2.467c0-1.234.166-3.126 2.61-3.126h2.943c2.486 0 2.61 1.892 2.61 3.126v2.796c0 1.892-1.326 2.427-2.403 2.386v.164c2.362-.04 2.403 1.769 2.403 2.386v3.537c0 1.234-.166 3.126-2.61 3.126h-2.942c-2.486 0-2.61-1.892-2.61-3.126v-3.003h3.521zM59.831 15.629h8.163v17.48h-3.522v-15.3h-1.119v15.3h-3.522zM73.587 25.253V17.81h.456c.373 0 .663.329.663.864v5.717c0 .534-.29.863-.663.863zm-3.522 7.856h3.522v-5.964h2.03c2.487 0 2.61-1.892 2.61-3.126v-5.264c0-1.234-.165-3.126-2.61-3.126h-5.552zM84.567 30.271c0 .288-.207.576-.538.576-.207 0-.539-.124-.539-.576V18.343c0-.452.332-.575.539-.575.331 0 .538.288.538.575zm-4.64-.288c0 1.234.165 3.126 2.61 3.126h2.9c2.487 0 2.61-1.892 2.61-3.126V18.755c0-1.234-.165-3.126-2.61-3.126h-2.9c-2.486 0-2.61 1.892-2.61 3.126zM99.07 15.629h4.557v17.48h-3.522V22.127h-.124L98.199 33.11h-2.817l-1.823-10.982h-.125V33.11h-3.522v-17.48h4.558l2.32 12.298zM43.63 46.887h.29c.497 0 .87-.165.87-.905s-.414-.946-.828-.946h-.332zM53.243 44.09h-.29v-1.85h.29c.497 0 .87.164.87.904s-.414.946-.87.946M65.01 46.887h-.29v-1.85h.332c.414 0 .828.205.828.945s-.372.905-.87.905M92.771 45.448l-.456-3.167-.455 3.167z"></path><path fill-rule="evenodd" d="M32.857 38.538h70.77v12.05h-70.77zm47.898 9.789c1.616 0 2.362-.7 2.362-2.345v-.699h-1.74v.946c0 .535-.249.74-.622.74-.331 0-.58-.247-.58-.781v-3.62c0-.37.29-.534.58-.534.249 0 .622.206.622.576v.658h1.74v-.494c0-1.11-.704-2.056-2.362-2.056-1.657 0-2.361.904-2.361 2.056v3.167c0 1.686.745 2.386 2.361 2.386m-8.784-5.142c0-1.521.953-2.385 2.196-2.385 1.41 0 2.155.905 2.155 1.933 0 .905-.29 1.357-1.036 1.686.746.288 1.284.576 1.284 1.892 0 1.44-.952 2.098-2.32 2.098-1.077 0-2.32-.494-2.32-2.344h1.616c0 .822.248 1.028.621 1.028.456 0 .622-.247.622-1.029 0-.658-.207-.946-.787-.946h-.249v-1.316h.414c.249 0 .539-.288.539-.781 0-.535-.166-.905-.58-.905-.456 0-.58.33-.58 1.07zm-33.769-2.22-1.201 2.878v-2.879h-1.699v7.24h1.699v-1.687l.456-.823.828 2.51h1.823l-1.616-4.032 1.616-3.207zm5.387 2.796h.828c1.036 0 2.114.453 2.114 2.221 0 1.851-1.12 2.221-2.114 2.221H41.85v-7.239h1.74zm3.688 4.442h1.74v-7.239h-1.74zm3.894-7.239v7.24h1.782v-2.798h.787c1.036 0 2.113-.452 2.113-2.22 0-1.851-1.077-2.221-2.113-2.221zm10.276 1.358v-1.358h-4.102v7.24h1.74v-5.882zm4.06 1.44h-.787v-2.797h-1.74v7.238h2.528c.994 0 2.113-.37 2.113-2.22 0-1.77-1.078-2.222-2.113-2.222m4.6 4.441h-1.74v-7.239h1.74zm17.36 0h-1.615v-5.881h-1.368v-1.358h4.268v1.358h-1.284zm5.926-7.239 1.616 7.24h-1.74l-.25-1.44h-1.325l-.207 1.44h-1.74l1.574-7.24zm4.93 2.797h1.12v-2.797h1.781v7.24h-1.782v-3.086h-1.118v3.085h-1.782v-7.239h1.781z" clip-rule="evenodd"></path></g><defs><clipPath id="a"><path fill="#fff" d="M0 0h104v51H0z"></path></clipPath></defs></svg>