<?xml version="1.0" encoding="utf-8"?>
<!-- Generator: Adobe Illustrator 15.1.0, SVG Export Plug-In . SVG Version: 6.00 Build 0)  -->
<!DOCTYPE svg PUBLIC "-//W3C//DTD SVG 1.1//EN" "http://www.w3.org/Graphics/SVG/1.1/DTD/svg11.dtd">
<svg version="1.1" id="_x31_" xmlns="http://www.w3.org/2000/svg" xmlns:xlink="http://www.w3.org/1999/xlink" x="0px" y="0px"
	 width="300px" height="50.293px" viewBox="156 370.854 300 50.293" enable-background="new 156 370.854 300 50.293"
	 xml:space="preserve">
<g>
	<g>
		<path fill="#007D32" d="M214.431,396.253c-1.843,4.723-5.02,8.678-9.304,11.508c-6.633,4.395-14.804,4.613-17.152,4.589v5.027
			c0.135,0,0.278,0,0.438,0c3.423,0,12.134-0.532,19.562-5.45c5.704-3.776,9.903-9.193,11.974-15.674H214.431z"/>
		<path fill="#007D32" d="M161.527,391.978c1.843-4.723,5.019-8.678,9.303-11.508c6.634-4.394,14.805-4.614,17.153-4.588v-5.027
			c-0.135,0-0.278,0-0.438,0c-3.423,0-12.135,0.532-19.562,5.45c-5.712,3.777-9.912,9.193-11.982,15.674H161.527z"/>
		<path fill="#007D32" d="M187.983,383.875c-5.652,0-10.241,4.588-10.241,10.241s4.589,10.241,10.241,10.241
			c5.653,0,10.241-4.588,10.241-10.241S193.636,383.875,187.983,383.875z M185.102,394.293c-1.589,0-2.873-1.284-2.873-2.873
			c0-1.589,1.284-2.873,2.873-2.873c1.588,0,2.873,1.284,2.873,2.873C187.983,393.009,186.69,394.293,185.102,394.293z"/>
	</g>
	<g>
		<path d="M228.043,420.825v-24.555h5.23v24.555H228.043L228.043,420.825z"/>
		<path d="M255.395,420.825l-11.711-16.013v16.013h-5.23v-24.555h5.374l11.373,15.429v-15.429h5.23v24.555H255.395L255.395,420.825z
			"/>
		<path d="M265.585,420.825v-24.555h17.382v4.604h-12.151v5.188h11.449v4.605h-11.449v10.165h-5.23V420.825z"/>
		<path d="M286.068,408.447c0-7.402,5.416-12.701,12.81-12.701c7.436,0,12.853,5.298,12.853,12.701
			c0,7.401-5.417,12.699-12.853,12.699C291.475,421.146,286.068,415.849,286.068,408.447z M306.347,408.447
			c0-4.606-2.948-8.062-7.47-8.062c-4.529,0-7.436,3.464-7.436,8.062c0,4.562,2.906,8.061,7.436,8.061
			S306.347,413.018,306.347,408.447z"/>
		<path d="M377.823,420.825v-19.95h-7.183v-4.604h19.587v4.604h-7.141v19.959h-5.264V420.825z"/>
		<path d="M392.02,408.447c0-7.547,5.703-12.701,13.071-12.701c5.416,0,8.542,2.949,10.274,5.999l-4.495,2.206
			c-1.03-1.986-3.236-3.574-5.779-3.574c-4.453,0-7.698,3.422-7.698,8.061c0,4.64,3.236,8.062,7.698,8.062
			c2.543,0,4.749-1.546,5.779-3.574l4.495,2.172c-1.766,3.059-4.858,6.041-10.274,6.041
			C397.731,421.146,392.02,415.992,392.02,408.447z"/>
		<path d="M435.434,420.825v-10.309h-11.602v10.309h-5.23v-24.555h5.23v9.649h11.602v-9.649h5.265v24.555H435.434L435.434,420.825z"
			/>
		<path d="M366.466,420.825l-1.401-4.157h-10.486l-1.344,4.157h-5.561l8.51-24.555h7.41l8.525,24.555H366.466L366.466,420.825z
			 M359.825,400.436l-3.76,11.636h7.511L359.825,400.436z"/>
		<polygon points="343.729,396.271 338.448,413.187 333.809,396.271 331.223,396.271 328.637,396.271 323.998,413.187 
			318.717,396.271 312.827,396.271 321.346,420.825 326.906,420.825 331.215,403.968 331.223,404.01 331.232,403.968 
			335.541,420.825 341.101,420.825 349.618,396.271 		"/>
	</g>
	<g>
		<path d="M449.714,383.782c-3.473,0-6.286,2.813-6.286,6.287c0,3.473,2.813,6.287,6.286,6.287s6.286-2.814,6.286-6.287
			C456,386.604,453.187,383.782,449.714,383.782z M449.714,395.104c-2.78,0-5.027-2.256-5.027-5.028s2.256-5.027,5.027-5.027
			c2.779,0,5.027,2.256,5.027,5.027S452.493,395.104,449.714,395.104z"/>
		<path d="M450.821,392.95l-1.166-2.104h-0.921v2.104h-1.259v-5.932h2.771c1.233,0,1.994,0.812,1.994,1.91
			c0,1.048-0.659,1.605-1.302,1.757l1.335,2.256h-1.453V392.95z M450.948,388.928c0-0.499-0.38-0.803-0.887-0.803h-1.327v1.597
			h1.327C450.559,389.73,450.948,389.426,450.948,388.928z"/>
	</g>
</g>
</svg>
