<svg version="1.1" id="Layer_1" xmlns="http://www.w3.org/2000/svg" xmlns:xlink="http://www.w3.org/1999/xlink" x="0px" y="0px" viewBox="0 0 264 50.7" style="enable-background:new 0 0 264 50.7;" xml:space="preserve">
 <style type="text/css">
  .st0{fill-rule:evenodd;clip-rule:evenodd;fill:#C01818;}
	.st1{fill-rule:evenodd;clip-rule:evenodd;fill:#BD2E2B;}
	.st2{fill-rule:evenodd;clip-rule:evenodd;fill:#75160D;}
 </style>
 <g>
  <path class="st0" d="M132,32.9l-7.1-4l-0.5,0.8c-1.6,2.4-3.8,3.7-6.6,3.6c-4.7,0-8.3-3.4-8.3-7.9c0-4.5,3.6-7.8,8.3-7.8
		c2.8,0,4.9,1.2,6.6,3.7l0.5,0.8l7.2-4l-0.6-0.9c-3.4-4.7-7.9-7-13.6-7c-10.9,0-16.8,7.9-16.8,15.3c0,7.4,5.9,15.3,16.8,15.3
		c5.6,0,10.8-2.7,13.7-7L132,32.9z">
  </path>
  <path class="st0" d="M151.5,16.1l3.8,9.6l-7.7,0L151.5,16.1z M132,40.7l9.5,0l2.8-6.9l14.2,0l2.8,7l9.5,0L153.9,0l-8.4,0l2.3,5.4
		L132,40.7z">
  </path>
  <path class="st0" d="M174.3,40.7l7.9,0l0-18.3l5.2,0l0-7.7l-5.2,0l0-3.6c0-1.6,1-3.2,2.9-3.2c1,0,1.6,0.2,2.2,0.5l0.9,0.4l3.3-7.5
		l-0.9-0.4c-1.5-0.6-3.5-0.9-5-0.9c-3.6,0-6.6,1.2-8.6,3.5c-1.8,2-2.7,4.8-2.7,7.9l0,3.3l-3.5,0l0,7.7l3.5,0L174.3,40.7z">
  </path>
  <path class="st0" d="M62.1,0v40.7l9.2,0l0-23.3l8.9,6.4l8.9-6.4v23.3l9.2,0l0-40.7L80.2,13.3L62.1,0z">
  </path>
  <path class="st0" d="M200.3,21.7c1.1-2.8,3.4-4.4,6.4-4.4c3,0,5.4,1.6,6.7,4.4L200.3,21.7z M207.5,10.2c-10.4,0-16,7.9-16,15.3
		c0,7.4,5.6,15.3,16,15.3h0h0c4.8-0.1,9.2-2.2,12.7-6.1l-6.7-3.7c-1.7,1.8-3.8,2.7-6.1,2.7c-3.4,0-6.4-2.3-7.2-5.2l22.4,0l0-2
		C222.6,15.2,213.8,10.2,207.5,10.2z">
  </path>
  <path class="st0" d="M234,21.7c1.1-2.8,3.4-4.4,6.4-4.4c3,0,5.4,1.6,6.7,4.4L234,21.7z M241.2,10.2c-10.4,0-16,7.9-16,15.3
		c0,7.4,5.6,15.3,16,15.3h0h0c4.8-0.1,9.2-2.2,12.7-6.1l-6.7-3.7c-1.7,1.8-3.8,2.7-6.1,2.7c-3.4,0-6.4-2.3-7.2-5.2l22.4,0l0-2
		C256.2,15.2,247.4,10.2,241.2,10.2z">
  </path>
  <path class="st0" d="M256.2,7.6h2.6v0.8h-1v4.3h-0.6V8.4h-1V7.6z">
  </path>
  <path class="st0" d="M258.8,7.6h1.2l1.4,4h0l1.3-4h1.2v5.1h-0.8V8.8h0l-1.4,3.9h-0.7l-1.4-3.9h0v3.9h-0.8V7.6z">
  </path>
  <path class="st1" d="M9,34.7V14.1l12.9,6v-9.9L0,0v40.5l21.9,10.2v-9.9L9,34.7z">
  </path>
  <path class="st2" d="M34.8,34.7V14.1l-12.9,6v-9.9L43.8,0v40.5L21.9,50.7v-9.9L34.8,34.7z">
  </path>
 </g>
</svg>