<svg xmlns="http://www.w3.org/2000/svg" width="249" height="21" fill="none"><path fill="red" fill-rule="evenodd" d="M11.591 8.277c0-1.683 0-2.618-.614-3.23-.615-.61-1.556-.61-3.25-.61H3.865c-1.693 0-2.635 0-3.25.61C0 5.66 0 6.595 0 8.278v3.84c0 1.684 0 2.62.615 3.23.614.612 1.556.612 3.249.612h3.864c1.693 0 2.634 0 3.249-.611.614-.612.614-1.547.614-3.23v-3.84Z" clipRule="evenodd"/><path fill="black" fill-rule="evenodd" d="M57.81 12.634c0 1.898-1.661 3.55-5.048 3.55-4.318 0-5.243-2.985-5.243-3.824h3.067c0 .613.65 1.373 2.176 1.373 1.526 0 2.063-.54 2.063-1.099 0-.558-.255-.999-1.528-1.202l-1.834-.279c-2.387-.384-3.798-1.407-3.798-3.327S49.32 4.21 52.503 4.21c3.538 0 5.08 2.337 5.08 3.824h-3.067c0-.761-.706-1.372-2.013-1.372-1.308 0-1.852.462-1.852 1.163 0 .542.426.826 1.494.984l1.932.294c2.387.361 3.734 1.475 3.734 3.53Zm10.774-8.197h4.738v2.837h-4.738v3.522c0 1.677.724 2.326 2.338 2.326h2.4v2.837h-2.98c-3.269 0-4.829-1.69-4.829-4.802V0h3.071v4.437Zm-41.776 8.91c-1.673 0-2.873-1.324-2.873-3.15 0-1.824 1.2-3.15 2.873-3.15 1.686 0 2.908 1.326 2.908 3.15 0 1.826-1.223 3.15-2.908 3.15Zm.669-9.136c-1.311 0-2.508.478-3.276 1.334h-.266V4.438h-3.07v15.958h3.07v-5.544h.266c.71.77 1.865 1.334 3.276 1.334 3.157 0 5.31-2.524 5.31-5.987s-2.153-5.987-5.31-5.987Zm70.326 2.568c1.329 0 2.375.847 2.792 2.135H95.03c.414-1.288 1.453-2.135 2.773-2.135Zm0-2.568c-3.318 0-6.006 2.524-6.006 5.987 0 3.442 2.599 5.987 6.103 5.987 2.6 0 4.935-1.473 5.718-3.763h-3.281c-.494.762-1.447 1.195-2.437 1.195-1.555 0-2.66-1.02-2.974-2.523h8.842l-.006-.009c.039-.289.067-.583.067-.887 0-3.463-2.688-5.987-6.026-5.987ZM75.288 15.959h3.07V4.437h-3.07v11.522Zm0-13.122h3.07V0h-3.07v2.837ZM59.733 15.96h3.071V4.437h-3.07v11.522Zm0-13.122h3.071V0h-3.07v2.837Zm-19.55 10.51c-1.701 0-2.935-1.324-2.935-3.15 0-1.824 1.234-3.15 2.934-3.15 1.713 0 2.955 1.326 2.955 3.15 0 1.855-1.215 3.15-2.955 3.15Zm0-9.136c-3.319 0-6.007 2.524-6.007 5.987 0 3.442 2.646 5.987 6.006 5.987 3.38 0 6.026-2.524 6.026-5.987S43.521 4.21 40.182 4.21Zm48.105.226h3.203l-3.496 11.522H83.34L79.844 4.437h3.204l2.376 8.685h.487l2.377-8.685ZM249 12.634c0 1.898-1.662 3.55-5.049 3.55-4.318 0-5.243-2.985-5.243-3.824h3.067c0 .613.65 1.373 2.176 1.373 1.526 0 2.063-.54 2.063-1.099 0-.558-.255-.999-1.528-1.202l-1.834-.279c-2.387-.384-3.798-1.407-3.798-3.327s1.656-3.615 4.837-3.615c3.539 0 5.081 2.337 5.081 3.824h-3.067c0-.761-.706-1.372-2.014-1.372-1.307 0-1.851.462-1.851 1.163 0 .542.426.826 1.494.984l1.932.294c2.387.361 3.734 1.475 3.734 3.53Zm-40.233-2.55c0-1.79 1.223-3.09 2.908-3.09 1.673 0 2.873 1.3 2.873 3.09v.002c0 1.79-1.2 3.09-2.873 3.09-1.685 0-2.908-1.3-2.908-3.091Zm5.781-4.538h-.242a1.253 1.253 0 0 0-.023-.026c-.769-.84-1.965-1.31-3.276-1.31-3.157 0-5.311 2.477-5.311 5.875 0 3.397 2.154 5.874 5.311 5.874 1.411 0 2.564-.553 3.276-1.31h.265v1.188c0 1.677-.724 2.326-2.337 2.326h-4.743V21h5.323c3.268 0 4.828-1.689 4.828-4.802V4.437h-3.071v1.109ZM171.93 8.992v6.967h-3.071V9.454c0-1.43-1.021-2.406-2.47-2.406-1.449 0-2.47.975-2.47 2.406v6.505h-3.071V4.437h3.071v1.109h.231c.78-.872 1.941-1.335 3.268-1.335 2.656 0 4.512 1.958 4.512 4.78Zm15.431 6.967h3.07V0h-3.07v15.959Zm43.923-9.18c1.328 0 2.375.847 2.792 2.135h-5.566c.415-1.288 1.454-2.135 2.774-2.135Zm0-2.568c-3.318 0-6.006 2.524-6.006 5.987 0 3.442 2.598 5.987 6.103 5.987 2.6 0 4.935-1.473 5.718-3.763h-3.282c-.493.762-1.447 1.195-2.436 1.195-1.555 0-2.661-1.02-2.974-2.523h8.842l-.006-.009c.039-.289.067-.583.067-.887 0-3.463-2.688-5.987-6.026-5.987Zm-10.956 11.748h3.071V4.437h-3.071v11.522Zm0-13.122h3.071V0h-3.071v2.837Zm-22.143 10.51c-1.701 0-2.935-1.324-2.935-3.15 0-1.824 1.234-3.15 2.935-3.15 1.712 0 2.955 1.326 2.955 3.15 0 1.855-1.215 3.15-2.955 3.15Zm0-9.136c-3.318 0-6.006 2.524-6.006 5.987 0 3.442 2.646 5.987 6.006 5.987 3.38 0 6.026-2.524 6.026-5.987s-2.688-5.987-6.026-5.987Zm-18.598 9.136c-1.701 0-2.935-1.324-2.935-3.15 0-1.824 1.234-3.15 2.935-3.15 1.712 0 2.955 1.326 2.955 3.15 0 1.855-1.215 3.15-2.955 3.15Zm0-9.136c-3.318 0-6.006 2.524-6.006 5.987 0 3.442 2.646 5.987 6.006 5.987 3.381 0 6.026-2.524 6.026-5.987s-2.688-5.987-6.026-5.987Zm-65.239.226h4.738v2.837h-4.738v3.522c0 1.677.724 2.326 2.338 2.326h2.4v2.837h-2.981c-3.268 0-4.828-1.69-4.828-4.802V0h3.071v4.437Zm28.013 7.021h3.168c-.406 2.762-2.808 4.727-5.746 4.727-3.36 0-5.957-2.545-5.957-5.987 0-3.463 2.639-5.987 5.957-5.987 2.901 0 5.331 1.816 5.744 4.63h-3.176c-.349-1.177-1.302-1.793-2.568-1.793-1.7 0-2.886 1.325-2.886 3.15s1.186 3.15 2.886 3.15c1.292 0 2.285-.727 2.578-1.89Zm15.997-2.466v6.967h-3.071V9.454c0-1.43-1.021-2.406-2.47-2.406-1.449 0-2.47.975-2.47 2.406v6.505h-3.071V0h3.071v5.546h.231c.78-.872 1.941-1.335 3.268-1.335 2.656 0 4.512 1.958 4.512 4.78Zm-32.043-2.213c1.328 0 2.375.847 2.792 2.135h-5.566c.414-1.288 1.454-2.135 2.774-2.135Zm0-2.568c-3.318 0-6.006 2.524-6.006 5.987 0 3.442 2.598 5.987 6.103 5.987 2.6 0 4.935-1.473 5.718-3.763h-3.282c-.493.762-1.446 1.195-2.436 1.195-1.555 0-2.661-1.02-2.974-2.523h8.842l-.007-.009c.04-.289.068-.583.068-.887 0-3.463-2.688-5.987-6.026-5.987Z" clipRule="evenodd"/></svg>