<svg version="1.1" id="Layer_1" xmlns:x="ns_extend;" xmlns:i="ns_ai;" xmlns:graph="ns_graphs;" xmlns="http://www.w3.org/2000/svg" xmlns:xlink="http://www.w3.org/1999/xlink" x="0px" y="0px" viewBox="0 0 305.9 72" style="enable-background:new 0 0 305.9 72;" xml:space="preserve">
 <style type="text/css">
  .st0{fill:#EE0000;}
 </style>
 <metadata>
  <sfw xmlns="ns_sfw;">
   <slices>
   </slices>
   <sliceSourceBounds bottomLeftOrigin="true" height="72" width="305.9" x="56.8" y="-237.2">
   </sliceSourceBounds>
  </sfw>
 </metadata>
 <g>
  <path class="st0" d="M63.5,41.5c6.3,0,15.3-1.3,15.3-8.7c0-0.6,0-1.1-0.2-1.7l-3.7-16.2c-0.9-3.6-1.6-5.2-7.9-8.3
		C62.2,4.1,51.6,0,48.5,0c-2.9,0-3.8,3.8-7.2,3.8c-3.3,0-5.8-2.8-8.9-2.8c-3,0-5,2-6.5,6.2c0,0-4.2,11.9-4.7,13.6
		c-0.1,0.3-0.1,0.6-0.1,1C21,26.4,39.2,41.5,63.5,41.5 M79.8,35.8c0.9,4.1,0.9,4.5,0.9,5.1c0,7-7.9,10.9-18.2,10.9
		C39,51.8,18.5,38,18.5,29c0-1.3,0.3-2.5,0.8-3.7C10.9,25.8,0,27.2,0,36.9C0,52.6,37.3,72,66.8,72c22.6,0,28.3-10.2,28.3-18.3
		C95.2,47.3,89.7,40.1,79.8,35.8">
  </path>
  <path d="M79.8,35.8c0.9,4.1,0.9,4.5,0.9,5.1c0,7-7.9,10.9-18.2,10.9C39,51.8,18.5,38,18.5,29c0-1.3,0.3-2.5,0.8-3.7l1.8-4.5
		c-0.1,0.3-0.1,0.6-0.1,1c0,4.6,18.1,19.7,42.5,19.7c6.3,0,15.3-1.3,15.3-8.7c0-0.6,0-1.1-0.2-1.7L79.8,35.8z">
  </path>
  <path d="M289.6,46.2c0,5.9,3.6,8.8,10.1,8.8c2,0,4-0.3,5.9-0.8v-6.9c-1.2,0.4-2.5,0.6-3.8,0.6c-2.7,0-3.7-0.8-3.7-3.4V33.9h7.8
		v-7.1h-7.8v-9l-8.5,1.8v7.2H284v7.1h5.6L289.6,46.2z M263.1,46.3c0-1.8,1.8-2.7,4.6-2.7c1.7,0,3.4,0.2,5,0.6v3.6
		c-1.6,0.9-3.5,1.3-5.3,1.3C264.8,49.1,263.1,48,263.1,46.3 M265.7,55.1c3,0,5.4-0.6,7.7-2.2v1.7h8.4V36.8c0-6.8-4.6-10.5-12.2-10.5
		c-4.3,0-8.5,1-13,3l3,6.3c3.3-1.4,6-2.2,8.4-2.2c3.5,0,5.3,1.4,5.3,4.2v1.4c-2.1-0.5-4.2-0.8-6.3-0.8c-7.2,0-11.5,3-11.5,8.4
		C255.6,51.4,259.5,55.1,265.7,55.1 M219.5,54.6h9V40.2h15.1v14.4h9.1V17.8h-9V32h-15.1V17.8h-9L219.5,54.6z M185.1,40.7
		c0-4,3.2-7,7.3-7c2.2,0,4.3,0.7,5.9,2.2v9.7c-1.6,1.5-3.7,2.3-5.9,2.2C188.3,47.8,185.1,44.7,185.1,40.7 M198.4,54.6h8.4V16
		l-8.5,1.8v10.5c-2.2-1.2-4.6-1.9-7.1-1.8c-8.1,0-14.5,6.3-14.5,14.2c-0.1,7.8,6.1,14.2,13.9,14.3c0.1,0,0.2,0,0.3,0
		c2.7,0,5.3-0.8,7.5-2.4L198.4,54.6z M159.8,33.2c2.7,0,4.9,1.7,5.8,4.4H154C154.8,34.9,156.9,33.2,159.8,33.2 M145.4,40.8
		c0,8.1,6.6,14.4,15.1,14.4c4.7,0,8.1-1.3,11.6-4.2l-5.6-5c-1.3,1.4-3.3,2.1-5.6,2.1c-3,0.1-5.7-1.7-6.8-4.4H174v-2.1
		c0-8.8-5.9-15.2-14-15.2c-7.9-0.1-14.4,6.2-14.5,14.1C145.4,40.5,145.4,40.6,145.4,40.8 M130.8,25.5c3,0,4.7,1.9,4.7,4.2
		s-1.7,4.2-4.7,4.2h-8.9v-8.3H130.8z M112.8,54.6h9V41.2h6.9l6.9,13.4h10.1l-8.1-14.7c4.2-1.7,7-5.8,6.9-10.4
		c0-6.6-5.2-11.7-13-11.7h-18.8V54.6z">
  </path>
 </g>
</svg>